ply
format ascii 1.0
comment Created in Blender version 4.0.1
element vertex 18
property float x
property float y
property float z
property float nx
property float ny
property float nz
element face 32
property list uchar uint vertex_indices
end_header
-2.1951344 0.76017624 4.502185 -0.42633343 -0.19755064 0.5651798
-2.1951337 -0.7601768 1.4586452 -0.45214266 -0.98706794 0.20672311
-2.1951344 0.76017624 -4.502185 -0.42633343 -0.19755028 -0.5651798
-2.1951337 -0.7601768 -1.4586452 -0.45214266 -0.98706794 -0.20672311
2.3586006 0.76017624 4.502185 0.42633346 -0.19755061 0.5651798
2.3586 -0.7601768 1.4586452 0.45214266 -0.98706794 0.20672311
2.3586006 0.76017624 -4.502185 0.4263335 -0.19755037 -0.5651798
2.3586 -0.7601768 -1.4586452 0.45214266 -0.9870678 -0.2067231
0.081733346 -0.7601768 1.4586452 0 -1.2737138 0.26675582
0.081733346 0.76017624 -4.502185 -0 -0.24600697 -0.70381165
0.081733346 -0.7601768 -1.4586452 -0 -1.273714 -0.26675585
0.081733346 0.76017624 4.502185 0 -0.24600716 0.70381165
-2.1951344 1.6063503 3.7254562 -0.43246526 0.9251348 0.30381978
-2.1951344 1.6063503 -3.7254555 -0.4324652 0.925135 -0.30381957
2.358601 1.6063503 3.7254562 0.43246529 0.9251346 0.30381978
2.358601 1.6063503 -3.7254555 0.43246526 0.92513466 -0.30381966
0.081733346 1.6063503 -3.7254555 0 1.161362 -0.38139802
0.081733346 1.6063503 3.7254562 0 1.161362 0.38139805
3 0 13 2
3 9 7 10
3 7 4 5
3 1 10 8
3 1 2 3
3 11 1 8
3 4 8 5
3 8 7 5
3 2 10 3
3 4 15 14
3 14 16 17
3 17 13 12
3 11 12 0
3 6 16 15
3 4 17 11
3 2 16 9
3 0 12 13
3 9 6 7
3 7 6 4
3 1 3 10
3 1 0 2
3 11 0 1
3 4 11 8
3 8 10 7
3 2 9 10
3 4 6 15
3 14 15 16
3 17 16 13
3 11 17 12
3 6 9 16
3 4 14 17
3 2 13 16
