ply
format ascii 1.0
comment Created in Blender version 4.0.1
element vertex 144
property float x
property float y
property float z
property float nx
property float ny
property float nz
element face 284
property list uchar uint vertex_indices
end_header
-0.1589058 0.20548646 0.1589058 -1.8772415 2.6831417 1.8797733
-0.1589058 0.1589058 0.20548643 -1.8824979 1.8824971 2.6775434
-0.20548643 0.1589058 0.1589058 -2.6831422 1.8772409 1.8797729
-0.1589058 0.0529686 0.25445804 -2.2153096 0.66255796 2.9850044
-0.25445804 0.0529686 0.1589058 -2.9993212 0.7048972 2.1826644
-0.1589058 -0.0529686 0.25445804 -2.1826634 -0.7048972 2.9993217
-0.25445804 -0.0529686 0.1589058 -2.9850059 -0.66255754 2.2153082
-0.264843 -0.0529686 0.14041862 -3.370869 -0.69538677 1.5525824
-0.264843 0.0529686 0.14041862 -3.3405497 0.77690536 1.5792329
-0.29532886 -0.0529686 0.0529686 -3.675219 -0.6122071 0.6122071
-0.29532886 0.0529686 0.0529686 -3.675219 0.6122071 0.6122072
-0.264843 -0.14041862 0.0529686 -3.3708682 -1.5525832 0.695387
-0.264843 -0.14041862 -0.0529686 -3.3706584 -1.5504259 -0.70119226
-0.29532886 -0.0529686 -0.0529686 -3.675219 -0.6122071 -0.6122072
-0.264843 -0.0529686 -0.14041862 -3.3405507 -0.7769054 -1.5792316
-0.264843 0.0529686 -0.14041862 -3.3708682 0.69538677 -1.5525835
-0.29532886 0.0529686 -0.0529686 -3.675219 0.6122071 -0.6122072
-0.264843 0.14041862 -0.0529686 -3.370868 1.5525838 -0.69538707
-0.264843 0.14041862 0.0529686 -3.3706586 1.5504254 0.70119226
-0.25445804 0.1589058 -0.0529686 -2.9850044 2.2153096 -0.6625579
-0.25445804 0.1589058 0.0529686 -2.985005 2.2153091 0.66255784
-0.1589058 0.25445804 -0.0529686 -2.1801453 2.9997745 -0.7107419
-0.1589058 0.25445804 0.0529686 -2.2153058 2.9850073 0.6625584
-0.14041856 0.264843 -0.0529686 -1.5792291 3.3405516 -0.7769049
-0.14041856 0.264843 0.0529686 -1.5504222 3.3706603 0.7011925
-0.0529686 0.29532886 -0.0529686 -0.6122073 3.675219 -0.6122075
-0.0529686 0.29532886 0.0529686 -0.61220735 3.675219 0.6122075
-0.0529686 0.264843 -0.14041856 -0.7769045 3.3405519 -1.5792291
0.0529686 0.29532886 -0.0529686 0.61220735 3.675219 -0.6122075
0.0529686 0.264843 -0.14041856 0.6953869 3.370869 -1.5525819
0.0529686 0.25445804 -0.1589058 0.66255766 2.9850054 -2.215308
-0.0529686 0.25445804 -0.1589058 -0.7107416 2.9997745 -2.1801445
-0.0529686 0.1589058 -0.25445804 -0.6625574 2.2153091 -2.9850051
0.0529686 0.1589058 -0.25445804 0.6625573 2.2153082 -2.9850054
0.0529686 0.14041862 -0.264843 0.7011919 1.5504246 -3.3706594
-0.0529686 0.14041862 -0.264843 -0.7011919 1.5504258 -3.3706586
-0.0529686 0.0529686 -0.29532886 -0.6122071 0.6122071 -3.675219
0.0529686 0.0529686 -0.29532886 0.6122071 0.6122072 -3.675219
0.0529686 -0.0529686 -0.29532886 0.6122071 -0.6122072 -3.675219
-0.0529686 -0.0529686 -0.29532886 -0.6122071 -0.6122072 -3.675219
0.0529686 -0.14041862 -0.264843 0.6953867 -1.5525824 -3.370869
-0.0529686 -0.14041862 -0.264843 -0.6953867 -1.5525835 -3.3708682
-0.0529686 -0.1589058 -0.25445804 -0.6625573 -2.2153091 -2.9850051
0.0529686 -0.1589058 -0.25445804 0.6625573 -2.2153082 -2.9850054
0.0529686 -0.25445804 -0.1589058 0.66255766 -2.9850054 -2.215308
-0.0529686 -0.25445804 -0.1589058 -0.70489645 -2.9993231 -2.1826618
-0.0529686 -0.264843 -0.14041856 -0.7769045 -3.3405519 -1.5792291
0.0529686 -0.264843 -0.14041856 0.6953869 -3.370869 -1.5525819
0.0529686 -0.29532886 -0.0529686 0.6122074 -3.675219 -0.61220753
-0.0529686 -0.29532886 -0.0529686 -0.61220735 -3.675219 -0.6122075
-0.0529686 -0.29532886 0.0529686 -0.6122074 -3.675219 0.61220753
0.0529686 -0.29532886 0.0529686 0.6122073 -3.675219 0.6122075
-0.0529686 -0.264843 0.14041856 -0.7769045 -3.3405519 1.5792291
0.0529686 -0.264843 0.14041856 0.77690303 -3.3405519 1.5792297
0.0529686 -0.25445804 0.1589058 0.710741 -2.9997745 2.180145
-0.0529686 -0.25445804 0.1589058 -0.7107416 -2.9997745 2.1801445
-0.0529686 -0.1589058 0.25445804 -0.6625574 -2.2153091 2.9850051
0.0529686 -0.1589058 0.25445804 0.6625573 -2.2153082 2.9850054
0.0529686 -0.14041862 0.264843 0.6953867 -1.5525824 3.370869
-0.0529686 -0.14041862 0.264843 -0.7011919 -1.5504255 3.3706586
-0.0529686 -0.0529686 0.29532886 -0.6122071 -0.6122072 3.675219
0.0529686 -0.0529686 0.29532886 0.6122071 -0.6122072 3.675219
-0.0529686 0.0529686 0.29532886 -0.6122071 0.6122072 3.675219
0.0529686 0.0529686 0.29532886 0.6122071 0.6122071 3.675219
0.0529686 0.14041862 0.264843 0.7769054 1.5792316 3.3405507
-0.0529686 0.14041862 0.264843 -0.6953867 1.5525835 3.3708682
-0.0529686 0.1589058 0.25445804 -0.6625573 2.2153091 2.9850051
0.0529686 0.1589058 0.25445804 0.7107423 2.180146 2.999773
0.0529686 0.25445804 0.1589058 0.66255766 2.9850054 2.215308
-0.0529686 0.25445804 0.1589058 -0.70489645 2.9993231 2.1826618
-0.0529686 0.264843 0.14041856 -0.7769045 3.3405519 1.5792291
0.0529686 0.264843 0.14041856 0.7011921 3.3706594 1.5504243
0.0529686 0.29532886 0.0529686 0.61220735 3.675219 0.6122075
0.14041856 0.264843 0.0529686 1.5792292 3.3405516 0.77690417
0.14041856 0.264843 -0.0529686 1.5525812 3.3708692 -0.69538736
0.1589058 0.25445804 -0.0529686 2.215307 2.9850063 -0.6625583
0.1589058 0.25445804 0.0529686 2.1826615 2.9993234 0.7048964
0.25445804 0.1589058 -0.0529686 2.9850047 2.2153096 -0.6625579
0.25445804 0.1589058 0.0529686 2.985005 2.2153094 0.6625579
0.264843 0.14041862 -0.0529686 3.3706584 1.5504259 -0.70119226
0.264843 0.14041862 0.0529686 3.3708682 1.5525833 0.69538707
0.264843 0.0529686 0.14041862 3.3708682 0.69538677 1.5525837
0.25445804 0.0529686 0.1589058 2.9850051 0.6625575 2.2153091
0.20548643 0.1589058 0.1589058 2.6775432 1.8824972 1.882498
0.264843 -0.0529686 0.14041862 3.3405504 -0.77690536 1.5792316
0.25445804 -0.0529686 0.1589058 2.999322 -0.70489717 2.1826632
0.264843 -0.14041862 0.0529686 3.3706586 -1.5504253 0.7011922
0.25445804 -0.1589058 0.0529686 2.985005 -2.2153091 0.66255784
0.20548643 -0.1589058 0.1589058 2.6831422 -1.8772409 1.8797729
0.1589058 -0.1589058 0.20548643 1.8824977 -1.8824971 2.6775439
0.1589058 -0.0529686 0.25445804 2.2153094 -0.6625579 2.9850044
0.1589058 -0.20548646 0.1589058 1.8727607 -2.6911643 1.8727607
0.264843 -0.14041862 -0.0529686 3.370868 -1.5525838 -0.6953872
0.25445804 -0.1589058 -0.0529686 2.9850044 -2.2153096 -0.6625579
0.1589058 -0.25445804 -0.0529686 2.215307 -2.9850063 -0.66255784
0.1589058 -0.25445804 0.0529686 2.1801445 -2.999775 0.7107417
0.1589058 -0.20548646 -0.1589058 1.8824978 -2.677543 -1.8824978
0.20548643 -0.1589058 -0.1589058 2.6775434 -1.8824972 -1.8824977
0.14041856 -0.264843 -0.0529686 1.5525813 -3.3708692 -0.69538707
0.14041856 -0.264843 0.0529686 1.5792292 -3.3405516 0.7769042
0.264843 -0.0529686 -0.14041862 3.370869 -0.69538677 -1.5525824
0.25445804 -0.0529686 -0.1589058 2.9850059 -0.66255754 -2.2153082
0.264843 0.0529686 -0.14041862 3.3405497 0.77690536 -1.5792329
0.25445804 0.0529686 -0.1589058 2.999321 0.70489717 -2.1826644
0.1589058 -0.0529686 -0.25445804 2.2153094 -0.6625579 -2.9850044
0.1589058 0.0529686 -0.25445804 2.182664 0.70489717 -2.9993212
0.14041862 0.0529686 -0.264843 1.579232 0.7769059 -3.3405502
0.14041862 -0.0529686 -0.264843 1.5525833 -0.695387 -3.3708682
0.29532886 -0.0529686 -0.0529686 3.675219 -0.6122071 -0.6122072
0.29532886 0.0529686 -0.0529686 3.675219 0.6122071 -0.6122071
0.29532886 -0.0529686 0.0529686 3.675219 -0.6122071 0.6122072
0.29532886 0.0529686 0.0529686 3.675219 0.6122071 0.6122072
0.1589058 -0.1589058 -0.20548643 1.8824975 -1.8824971 -2.6775434
0.1589058 0.0529686 0.25445804 2.180147 0.7107423 2.9997728
0.14041862 -0.0529686 0.264843 1.5525832 -0.6953872 3.3708682
0.14041862 0.0529686 0.264843 1.5792326 0.7769051 3.3405502
0.1589058 0.1589058 0.20548643 1.8727605 1.8727599 2.6911647
0.1589058 0.20548646 0.1589058 1.879773 2.6831417 1.8772416
0.20548643 0.1589058 -0.1589058 2.6831422 1.8772409 -1.8797729
0.1589058 0.20548646 -0.1589058 1.8824974 2.677543 -1.8824978
0.1589058 0.1589058 -0.20548643 1.8797731 1.877241 -2.6831422
-0.14041862 -0.0529686 0.264843 -1.5792316 -0.77690583 3.3405504
-0.14041862 0.0529686 0.264843 -1.5525835 0.69538707 3.3708682
-0.1589058 -0.20548646 0.1589058 -1.8727605 -2.6911643 1.8727608
-0.1589058 -0.1589058 0.20548643 -1.8797729 -1.8772407 2.6831424
-0.20548643 -0.1589058 0.1589058 -2.6775434 -1.8824972 1.8824979
-0.1589058 -0.25445804 0.0529686 -2.1801438 -2.999775 0.7107419
-0.25445804 -0.1589058 0.0529686 -2.9850047 -2.2153096 0.66255796
-0.1589058 -0.25445804 -0.0529686 -2.215307 -2.9850063 -0.6625583
-0.25445804 -0.1589058 -0.0529686 -2.9850047 -2.2153096 -0.6625579
-0.1589058 -0.20548646 -0.1589058 -1.8772415 -2.6831417 -1.8797733
-0.20548643 -0.1589058 -0.1589058 -2.6831422 -1.8772409 -1.8797729
-0.1589058 -0.1589058 -0.20548643 -1.882498 -1.8824971 -2.6775434
-0.1589058 -0.0529686 -0.25445804 -2.2153091 -0.6625581 -2.9850047
-0.25445804 -0.0529686 -0.1589058 -2.999322 -0.70489717 -2.1826634
-0.1589058 0.0529686 -0.25445804 -2.182664 0.7048972 -2.9993212
-0.25445804 0.0529686 -0.1589058 -2.9850051 0.6625575 -2.2153091
-0.1589058 0.1589058 -0.20548643 -1.8797731 1.8772408 -2.6831424
-0.20548643 0.1589058 -0.1589058 -2.6775432 1.8824972 -1.882498
-0.1589058 0.20548646 -0.1589058 -1.8727607 2.691164 -1.8727608
-0.14041862 -0.0529686 -0.264843 -1.5525831 -0.69538707 -3.3708682
-0.14041862 0.0529686 -0.264843 -1.5792321 0.77690583 -3.3405502
-0.14041856 -0.264843 0.0529686 -1.579228 -3.3405523 0.77690476
-0.14041856 -0.264843 -0.0529686 -1.5504234 -3.3706596 -0.70119256
3 2 1 0
3 1 4 3
3 4 5 3
3 4 7 6
3 10 7 8
3 7 9 11
3 9 12 11
3 13 14 12
3 16 14 13
3 15 16 17
3 10 17 16
3 20 17 18
3 20 21 19
3 24 21 22
3 24 25 23
3 27 23 25
3 27 28 29
3 27 30 31
3 32 30 33
3 32 34 35
3 36 34 37
3 36 38 39
3 39 40 41
3 42 40 43
3 42 44 45
3 46 44 47
3 46 48 49
3 50 48 51
3 52 51 53
3 52 54 55
3 56 54 57
3 56 58 59
3 60 58 61
3 62 61 63
3 62 64 65
3 66 64 67
3 66 68 69
3 70 68 71
3 70 72 26
3 71 73 72
3 73 28 72
3 73 75 74
3 78 75 76
3 78 79 77
3 83 81 80
3 78 83 80
3 82 84 81
3 88 86 85
3 84 85 86
3 85 89 88
3 88 89 91
3 87 92 86
3 87 94 93
3 93 96 97
3 99 94 95
3 97 100 92
3 93 97 92
3 103 100 101
3 103 104 105
3 106 104 107
3 109 100 102
3 109 102 79
3 111 108 109
3 101 112 104
3 100 108 92
3 110 92 108
3 110 84 86
3 82 90 85
3 115 90 113
3 111 84 110
3 83 113 82
3 116 83 117
3 118 79 103
3 102 103 79
3 111 79 80
3 117 78 76
3 77 119 75
3 118 120 119
3 63 115 64
3 122 60 62
3 115 61 114
3 60 121 59
3 114 61 58
3 56 123 55
3 124 125 123
3 123 127 126
3 127 128 126
3 129 130 128
3 131 132 130
3 134 132 131
3 136 133 134
3 138 135 136
3 137 138 139
3 141 133 135
3 142 128 143
3 57 91 89
3 142 55 126
3 123 126 55
3 53 95 54
3 91 54 95
3 99 53 51
3 142 49 50
3 99 48 98
3 143 46 49
3 47 98 48
3 143 130 45
3 46 143 45
3 47 96 98
3 94 98 96
3 43 96 44
3 132 140 41
3 42 132 41
3 107 112 40
3 43 40 112
3 140 39 41
3 38 107 40
3 141 39 140
3 106 38 37
3 106 37 34
3 137 35 135
3 141 135 35
3 34 120 105
3 106 34 105
3 32 139 31
3 33 119 120
3 74 29 28
3 26 28 25
3 24 0 69
3 70 24 69
3 136 14 15
3 127 12 129
3 10 13 9
3 122 5 121
3 2 18 4
3 8 4 18
3 1 122 65
3 66 1 65
3 6 124 5
3 20 0 22
3 10 8 18
3 125 7 11
3 127 125 11
3 19 139 138
3 138 15 17
3 19 138 17
3 131 12 134
3 14 134 12
3 0 66 69
3 122 62 65
3 124 59 5
3 121 5 59
3 24 70 26
3 52 142 50
3 23 31 21
3 139 21 31
3 36 141 35
3 130 42 45
3 67 117 68
3 67 115 113
3 116 67 113
3 58 89 114
3 90 114 89
3 71 117 76
3 73 71 76
3 81 111 80
3 87 91 95
3 74 119 29
3 30 29 119
3 120 103 105
3 112 97 96
3 1 2 4
3 4 6 5
3 4 8 7
3 10 9 7
3 9 13 12
3 16 15 14
3 10 18 17
3 20 19 17
3 20 22 21
3 24 23 21
3 24 26 25
3 27 25 28
3 27 29 30
3 32 31 30
3 32 33 34
3 36 35 34
3 36 37 38
3 39 38 40
3 42 41 40
3 42 43 44
3 46 45 44
3 46 47 48
3 50 49 48
3 52 50 51
3 52 53 54
3 56 55 54
3 56 57 58
3 60 59 58
3 62 60 61
3 62 63 64
3 66 65 64
3 66 67 68
3 70 69 68
3 70 71 72
3 73 74 28
3 73 76 75
3 78 77 75
3 78 80 79
3 83 82 81
3 82 85 84
3 88 87 86
3 85 90 89
3 87 93 92
3 87 95 94
3 93 94 96
3 99 98 94
3 97 101 100
3 103 102 100
3 103 101 104
3 106 105 104
3 109 108 100
3 111 110 108
3 101 97 112
3 110 86 92
3 82 113 90
3 115 114 90
3 111 81 84
3 83 116 113
3 118 77 79
3 111 109 79
3 117 83 78
3 77 118 119
3 122 121 60
3 115 63 61
3 56 124 123
3 123 125 127
3 127 129 128
3 129 131 130
3 134 133 132
3 136 135 133
3 138 137 135
3 141 140 133
3 142 126 128
3 57 54 91
3 142 52 55
3 53 99 95
3 142 143 49
3 99 51 48
3 143 128 130
3 47 44 96
3 43 112 96
3 132 133 140
3 107 104 112
3 141 36 39
3 106 107 38
3 137 32 35
3 34 33 120
3 32 137 139
3 33 30 119
3 26 72 28
3 24 22 0
3 136 134 14
3 127 11 12
3 10 16 13
3 122 3 5
3 2 20 18
3 1 3 122
3 6 125 124
3 20 2 0
3 125 6 7
3 19 21 139
3 138 136 15
3 131 129 12
3 0 1 66
3 124 56 59
3 23 27 31
3 130 132 42
3 67 116 117
3 67 64 115
3 58 57 89
3 71 68 117
3 87 88 91
3 74 75 119
3 120 118 103
