ply
format ascii 1.0
comment Created in Blender version 4.0.1
element vertex 180
property float x
property float y
property float z
property float nx
property float ny
property float nz
element face 356
property list uchar uint vertex_indices
end_header
0.35896894 -0.9945114 -1.7462506 1.3418617 0.4914052 0
0.35896894 -0.107815474 -4.121268 0.95134825 0.5469517 0
0.35896894 -0.9945114 1.7462506 1.3418617 0.4914052 0
0.35896894 -0.107815474 4.121268 1.194944 0.5152505 0
-0.3580766 -0.9945114 -1.7462506 -1.3418617 0.4914052 0
-0.3580766 -0.107815474 -4.121268 -1.3818264 0.44409356 0.049966373
-0.3580766 -0.9945114 1.7462506 -1.3418617 0.4914052 0
-0.3580766 -0.107815474 4.121268 -1.3818266 0.4440935 -0.049966354
0.35896894 0.44440234 -4.6392846 0.4887585 0.5848605 0
0.35896894 0.44440234 4.6392846 0.4886859 0.5848645 0
-0.3580766 0.44440234 -4.6392846 -1.4931992 -0.06134905 0.118662365
-0.3580766 0.44440234 4.6392846 -1.4931991 -0.06134926 -0.118662365
0.35896894 0.44440234 -4.6392846 0 0.59786904 0
0.35896894 0.44440234 4.6392846 0 0.59786904 0
0.35896894 0.44440234 -4.6392846 0.7571567 0.5661489 0
0.35896894 0.44440234 4.6392846 0.7572623 0.56613976 0
0.35896894 0.6227255 4.259085 0 0.59786904 0
-0.3580766 0.6227255 4.259085 -1.666749 0.36593744 -0.054683812
-0.3580766 0.6227255 -4.259085 -1.6667485 0.3659375 0.054683823
0.35896894 0.6227255 -4.259085 0 0.597869 0
0.35896894 0.6227255 4.259085 0 0.59786904 0
0.35896894 0.6227255 -4.259085 0 0.59786904 0
0.35896894 0.6227255 -4.259085 1.552947 0.44958192 0
0.35896894 0.6227255 4.259085 1.5528105 0.44961223 0
0.35896894 0.7795275 3.5082955 0 0.59786904 0
-0.3580766 0.7795275 3.5082955 -1.4534323 0.47052386 0
-0.3580766 0.7795275 -3.5082955 -1.4534323 0.47052386 0
0.35896894 0.7795275 -3.5082955 0 0.59786904 0
0.35896894 0.7795275 3.5082955 0 0.59786904 0
0.35896894 0.7795275 -3.5082955 0 0.59786904 0
0.35896894 0.7795275 -3.5082955 0.85971594 0.5566367 0
0.35896894 0.7795275 3.5082955 1.0911684 0.5298707 0
0.35896894 -0.9945114 1.7462506 0 0.59786904 0
0.35896894 -0.9945114 -1.7462506 0 0.59786904 0
0.35896894 -0.107815474 -4.121268 0 0.59786904 0
0.35896894 -0.107815474 4.121268 0 0.59786904 0
-0.3580766 -0.9945114 1.7462506 0 0.5826317 -0.03472214
-0.3580766 -0.107815474 4.121268 0 0.56946313 -0.04714337
-0.3580766 -0.9945114 -1.7462506 0 0.5826317 0.03472214
-0.3580766 -0.107815474 -4.121268 0 0.56946313 0.047143366
0.35896894 0.44440234 5.0542355 0 0.43245915 0.106877714
-0.3580766 0.44440234 5.0542355 0 0.009386181 0.15476443
-0.3580766 0.44440234 -5.0334435 0 0.008968693 -0.1547661
0.35896894 0.44440234 -5.0334435 0 0.43168724 -0.10708665
0.35896894 0.6227255 4.259085 0 0.59786904 0
-0.3580766 0.6227255 4.259085 0 0.53175235 -0.070752315
-0.3580766 0.6227255 -4.259085 0 0.53175235 0.070752285
0.35896894 0.6227255 -4.259085 0 0.59786904 0
0.35896894 0.7795275 3.5082955 0 0.59786904 0
-0.3580766 0.7795275 3.5082955 0 0.19904791 -0.1459534
-0.3580766 0.7795275 -3.5082955 0 0.19904767 0.14595343
0.35896894 0.7795275 -3.5082955 0 0.59786904 0
0.35896894 0.7795275 3.5082955 0 0.59786904 0
0.35896894 0.7795275 -3.5082955 0 0.59786904 0
0.35896894 0.7795275 -3.5082955 0 0.59786904 0
0.35896894 0.7795275 3.5082955 0 0.59786904 0
0.35896894 0.8422694 4.6392846 0 0.4964961 0.08623047
-0.3580766 0.8422694 4.6392846 0 0.22400326 0.14350882
-0.3580766 0.8422694 -4.6392846 0 0.22049214 -0.14387283
0.35896894 0.8422694 -4.6392846 0 0.49554017 -0.086598255
0.35896894 1.0205926 4.259085 0 0.5429753 0.064787775
-0.3580766 1.0205926 4.259085 0 0.38432053 0.11856718
-0.3580766 1.0205926 -4.259085 0 0.38432068 -0.118567154
0.35896894 1.0205926 -4.259085 0 0.5429662 -0.064792864
0.35896894 1.1773946 3.5082955 0 0.59277356 0.020165246
-0.3580766 1.1773946 3.5082955 0 0.5637618 0.051531903
-0.3580766 1.1773946 -3.5082955 0 0.5637618 -0.0515319
0.35896894 1.1773946 -3.5082955 0 0.5953205 -0.014276395
0.35896894 1.1773946 3.5082955 0 0.59786904 0
0.35896894 1.1773946 -3.5082955 0 0.59786904 0
0.35896894 1.1773946 -3.5082955 0 0.59786904 0
0.35896894 1.1773946 3.5082955 0 0.59786904 0
0.35896894 -1.4485741 1.7462506 0 0.2772719 0.13713156
0.35896894 -1.4485741 -1.7462506 0 0.27727193 -0.13713156
0.35896894 -0.56187814 -4.121268 0 0.33134782 -0.12883773
0.35896894 -0.56187814 4.121268 0 0.33134782 0.12883772
-0.3580766 -1.4485741 1.7462506 0 -0.5296864 0.07178347
-0.3580766 -0.56187814 4.121268 0 -0.24503054 0.14118694
-0.3580766 -1.4485741 -1.7462506 -0 -0.5296864 -0.07178347
-0.3580766 -0.56187814 -4.121268 -0 -0.24503049 -0.14118694
0.35896894 -0.009660311 4.6392846 0 0.37021753 0.12153768
-0.3580766 -0.009660311 4.6392846 0 -0.13937387 0.15051898
-0.3580766 -0.009660311 -4.6392846 -0 -0.13609959 -0.15071967
0.35896894 -0.009660311 -4.6392846 0 0.3715467 -0.12126553
0.35896894 -0.107815474 -4.121268 0 0.5726082 0.044516817
0.35896894 0.44440234 -4.6392846 0 0.411558 0.11227301
0.35896894 0.44440234 4.6392846 0 0.41151965 -0.11228245
0.35896894 -0.107815474 4.121268 0 0.5827322 -0.03460892
0.35896894 0.6227255 -4.259085 0 0.5801617 0.037391584
0.35896894 0.6227255 4.259085 0 0.56468654 -0.05084871
0.35896894 0.6227255 -4.259085 0 0.57533467 0.04209475
0.35896894 0.44440234 -5.0334435 0 0.4316872 -0.10708668
0.35896894 -0.9945114 1.7462506 0 0.5826317 -0.03472214
0.35896894 -0.9945114 -1.7462506 0 0.5826317 0.03472214
0.35896894 -0.107815474 -4.121268 0 0.588431 0.027394019
0.35896894 -0.107815474 4.121268 0 0.5826317 -0.03472214
0.35896894 -1.4485741 1.7462506 0 0.2772719 0.13713154
0.35896894 -0.56187814 4.121268 0 0.33134782 0.12883772
0.35896894 0.44440234 5.0542355 0 0.43244994 0.106880225
0.35896894 -0.009660311 4.6392846 0 0.37026376 0.12152825
0.35896894 1.1773946 -3.5082955 0 0.5925773 0.020548219
0.35896894 0.7795275 -3.5082955 0 0.35886794 0.12379834
0.35896894 1.0205926 -4.259085 0 0.5429753 -0.06478779
0.35896894 0.6227255 4.259085 0 0.5868285 -0.029608615
0.35896894 0.7795275 3.5082955 0 0.57533467 -0.04209476
0.35896894 0.7795275 3.5082955 0 0.59786904 0
0.35896894 0.7795275 -3.5082955 0 0.42275724 -0.10944847
0.35896894 0.7795275 3.5082955 0 0.59786904 0
0.35896894 0.8422694 -4.6392846 0 0.49552244 -0.086605035
0.35896894 0.8422694 4.6392846 0 0.49650127 0.08622847
0.35896894 1.0205926 4.259085 0 0.5429663 0.06479284
0.35896894 1.1773946 3.5082955 0 0.5927735 0.020165237
0.35896894 1.1773946 3.5082955 0 0.59786904 0
0.35896894 1.1773946 -3.5082955 0 0.5671884 -0.048946843
0.35896894 1.1773946 3.5082955 0 0.597869 0
0.35896894 -1.4485741 -1.7462506 0 0.2772719 -0.13713154
0.35896894 -0.56187814 -4.121268 0 0.33134782 -0.12883773
0.35896894 -0.009660311 -4.6392846 0 0.3715467 -0.121265545
0.5961746 -0.107815474 -4.121268 0 0.5483254 0.061693836
0.5961746 0.44440234 -4.6392846 1.8813205 -0.0477396 0.09233887
0.5961746 0.44440234 4.6392846 1.8813359 -0.04768008 -0.092339605
0.5961746 -0.107815474 4.121268 0.10697442 0.5477598 -0.061630197
0.5961746 0.6227255 -4.259085 0.28851044 0.51390374 0.07679512
0.5961746 0.6227255 4.259085 0 0.5178014 -0.077377595
0.5961746 0.6227255 -4.259085 1.9513406 0.29793075 0.039641235
0.5961746 0.44440234 -5.0334435 1.5502733 0.006804049 -0.11653359
0.5961746 -0.9945114 1.7462506 1.9500438 0.29720402 -0.040277228
0.5961746 -0.9945114 -1.7462506 1.9500438 0.29720405 0.040277228
0.5961746 -0.107815474 -4.121268 1.5025871 0.43859395 0.036309306
0.5961746 -0.107815474 4.121268 1.4570167 0.44748768 -0.037045572
0.5961746 -1.4485741 1.7462506 1.4514463 -0.41721356 0.056541104
0.5961746 -0.56187814 4.121268 1.5740349 -0.18231058 0.10504754
0.5961746 0.44440234 5.0542355 1.5449563 0.0070858067 0.11683686
0.5961746 -0.009660311 4.6392846 1.6642543 -0.09864507 0.106533185
0.5961746 1.1773946 -3.5082955 1.2952564 0.45054567 0.05576903
0.5961746 0.7795275 -3.5082955 1.4645886 -0.20199761 0.10937779
0.5961746 1.0205926 -4.259085 1.5694948 0.28661016 -0.08842239
0.5961746 0.6227255 4.259085 2.0099645 0.27736458 -0.03690479
0.5961746 0.7795275 3.5082955 1.7002237 0.3680771 -0.04897459
0.5961746 0.7795275 3.5082955 0 0.59786904 0
0.5961746 0.7795275 -3.5082955 1.3601396 -0.34517992 -0.089364305
0.5961746 0.7795275 3.5082955 1.6658238 0.42275724 0
0.5961746 0.8422694 -4.6392846 1.6013803 0.16171819 -0.10552239
0.5961746 0.8422694 4.6392846 1.6044672 0.16402078 0.10508084
0.5961746 1.0205926 4.259085 1.5694948 0.28661 0.088422425
0.5961746 1.1773946 3.5082955 0.460594 0.57190865 0.03346069
0.5961746 1.1773946 3.5082955 0 0.59786904 0
0.5961746 1.1773946 -3.5082955 1.3601396 0.3451799 -0.089364305
0.5961746 1.1773946 3.5082955 0.7449791 0.5671884 0
0.5961746 -1.4485741 -1.7462506 1.4514464 -0.41721365 -0.05654112
0.5961746 -0.56187814 -4.121268 1.5740349 -0.1823106 -0.105047524
0.5961746 -0.009660311 -4.6392846 1.6612808 -0.09649868 -0.10686477
-0.6879693 -0.107815474 4.121268 -1.5025872 0.43859422 -0.036309037
-0.6879693 -0.107815474 4.121268 0 0.5483254 -0.061693832
-0.6879693 -0.107815474 -4.121268 -0.10193835 0.54781187 0.061636038
-0.6879693 0.44440234 -4.6392846 -1.8813359 -0.047680177 0.09233958
-0.6879693 0.44440234 4.6392846 -1.8813206 -0.047739655 -0.09233885
-0.6879693 0.6227255 -4.259085 -2.0099645 0.2773646 0.036904752
-0.6879693 0.6227255 -4.259085 0 0.51780134 0.07737759
-0.6879693 0.6227255 4.259085 -0.2994983 0.5135999 -0.07674974
-0.6879693 0.44440234 5.0542355 -1.5449567 0.0070857992 0.11683686
-0.6879693 -0.009660311 4.6392846 -1.6642551 -0.09864511 0.1065331
-0.6879693 -0.9945114 1.7462506 -1.9500438 0.297204 -0.04027723
-0.6879693 -0.9945114 -1.7462506 -1.9500438 0.297204 0.040277228
-0.6879693 -0.107815474 -4.121268 -1.4592291 0.44706658 0.037010428
-0.6879693 0.44440234 -5.0334435 -1.550273 0.0068250955 -0.11653354
-0.6879693 0.6227255 4.259085 -1.9488072 0.2987744 -0.03975341
-0.6879693 1.1773946 -3.5082955 -1.506048 0.43351564 -0.03962648
-0.6879693 0.7795275 -3.5082955 -1.8617173 -0.3454577 0.031577338
-0.6879693 0.7795275 3.5082955 -1.8617172 -0.34545776 -0.03157735
-0.6879693 1.1773946 3.5082955 -1.5060481 0.4335157 0.039626475
-0.6879693 0.8422694 -4.6392846 -1.6013803 0.16171809 -0.10552241
-0.6879693 1.0205926 -4.259085 -1.5694948 0.28661004 -0.08842241
-0.6879693 1.0205926 4.259085 -1.5694944 0.28661022 0.08842237
-0.6879693 0.8422694 4.6392846 -1.6044672 0.16402102 0.10508081
-0.6879693 -0.56187814 4.121268 -1.5740352 -0.1823106 0.10504754
-0.6879693 -1.4485741 1.7462506 -1.4514464 -0.41721365 0.05654111
-0.6879693 -1.4485741 -1.7462506 -1.4514463 -0.41721353 -0.056541108
-0.6879693 -0.56187814 -4.121268 -1.5740349 -0.1823106 -0.105047524
-0.6879693 -0.009660311 -4.6392846 -1.6612818 -0.09649875 -0.1068647
3 1 2 0
3 1 33 34
3 7 4 6
3 24 52 48
3 16 48 44
3 1 9 3
3 0 32 33
3 6 38 36
3 7 10 5
3 9 12 13
3 13 14 15
3 27 47 51
3 7 36 37
3 14 21 22
3 26 49 50
3 12 19 21
3 13 23 20
3 11 18 10
3 14 23 15
3 9 20 16
3 18 50 46
3 72 115 96
3 20 31 28
3 22 31 23
3 16 28 24
3 17 26 18
3 22 29 30
3 21 27 29
3 18 157 158
3 11 159 17
3 59 102 108
3 41 80 40
3 3 86 87
3 80 97 99
3 40 57 41
3 64 110 111
3 8 84 85
3 39 163 38
3 48 105 104
3 25 45 49
3 74 117 116
3 29 51 53
3 4 39 38
3 42 171 58
3 63 100 102
3 31 54 55
3 2 35 32
3 7 152 153
3 30 53 54
3 78 178 79
3 45 169 49
3 28 55 52
3 58 63 59
3 62 67 63
3 56 61 57
3 71 67 66
3 60 65 61
3 38 162 36
3 76 177 78
3 42 59 43
3 53 67 69
3 1 94 84
3 54 113 106
3 47 88 90
3 54 69 70
3 82 165 42
3 71 112 114
3 36 152 37
3 75 76 72
3 79 73 78
3 76 73 72
3 79 83 74
3 75 81 77
3 43 82 42
3 16 103 89
3 77 176 76
3 41 161 81
3 40 99 98
3 43 108 91
3 57 160 41
3 114 147 113
3 89 120 86
3 96 131 97
3 112 145 146
3 85 122 88
3 116 149 115
3 109 144 110
3 86 121 87
3 115 130 96
3 101 134 100
3 102 142 108
3 84 119 85
3 95 121 129
3 113 140 106
3 108 125 91
3 99 132 98
3 33 92 93
3 55 106 107
3 60 109 110
3 73 116 115
3 34 93 94
3 75 96 97
3 32 95 92
3 52 107 105
3 67 101 100
3 56 98 109
3 35 87 95
3 19 85 88
3 51 90 101
3 44 104 103
3 68 111 112
3 83 91 117
3 9 89 86
3 70 114 113
3 122 125 124
3 126 149 127
3 129 133 131
3 138 146 145
3 138 144 137
3 135 136 134
3 120 137 132
3 119 128 125
3 121 132 129
3 124 142 136
3 140 148 141
3 137 143 132
3 139 148 146
3 127 150 128
3 128 151 125
3 126 131 130
3 117 150 116
3 90 122 124
3 114 146 148
3 104 139 138
3 97 133 99
3 100 136 102
3 106 141 107
3 92 127 93
3 110 145 111
3 105 141 139
3 91 151 117
3 93 128 94
3 90 135 101
3 95 126 92
3 104 137 103
3 98 143 109
3 89 137 123
3 84 128 118
3 164 179 178
3 163 178 177
3 169 167 168
3 159 160 166
3 154 165 164
3 156 152 160
3 155 157 165
3 157 171 165
3 169 173 170
3 166 174 173
3 168 172 157
3 152 161 160
3 162 175 152
3 163 176 162
3 49 168 50
3 62 167 66
3 58 172 62
3 45 159 166
3 65 173 61
3 10 154 5
3 79 179 82
3 81 175 77
3 7 156 11
3 61 174 57
3 39 154 164
3 18 155 10
3 50 157 46
3 66 170 65
3 1 3 2
3 1 0 33
3 7 5 4
3 24 28 52
3 16 24 48
3 1 8 9
3 0 2 32
3 6 4 38
3 7 11 10
3 9 8 12
3 13 12 14
3 27 19 47
3 7 6 36
3 14 12 21
3 26 25 49
3 12 8 19
3 13 15 23
3 11 17 18
3 14 22 23
3 9 13 20
3 18 26 50
3 72 73 115
3 20 23 31
3 22 30 31
3 16 20 28
3 17 25 26
3 22 21 29
3 21 19 27
3 18 46 157
3 11 156 159
3 59 63 102
3 41 81 80
3 3 9 86
3 80 75 97
3 40 56 57
3 64 60 110
3 8 1 84
3 39 164 163
3 48 52 105
3 25 17 45
3 74 83 117
3 29 27 51
3 4 5 39
3 42 165 171
3 63 67 100
3 31 30 54
3 2 3 35
3 7 37 152
3 30 29 53
3 78 177 178
3 45 166 169
3 28 31 55
3 58 62 63
3 62 66 67
3 56 60 61
3 64 68 71
3 70 69 67
3 65 64 71
3 66 65 71
3 71 70 67
3 60 64 65
3 38 163 162
3 76 176 177
3 42 58 59
3 53 51 67
3 1 34 94
3 54 70 113
3 47 19 88
3 54 53 69
3 82 179 165
3 71 68 112
3 36 162 152
3 75 77 76
3 79 74 73
3 76 78 73
3 79 82 83
3 75 80 81
3 43 83 82
3 16 44 103
3 77 175 176
3 41 160 161
3 40 80 99
3 43 59 108
3 57 174 160
3 114 148 147
3 89 123 120
3 96 130 131
3 112 111 145
3 85 119 122
3 116 150 149
3 109 143 144
3 86 120 121
3 115 149 130
3 101 135 134
3 102 136 142
3 84 118 119
3 95 87 121
3 113 147 140
3 108 142 125
3 99 133 132
3 33 32 92
3 55 54 106
3 60 56 109
3 73 74 116
3 34 33 93
3 75 72 96
3 32 35 95
3 52 55 107
3 67 51 101
3 56 40 98
3 35 3 87
3 19 8 85
3 51 47 90
3 44 48 104
3 68 64 111
3 83 43 91
3 9 16 89
3 70 71 114
3 122 119 125
3 126 130 149
3 129 132 133
3 138 139 146
3 138 145 144
3 135 124 136
3 120 123 137
3 119 118 128
3 121 120 132
3 124 125 142
3 140 147 148
3 137 144 143
3 139 141 148
3 127 149 150
3 128 150 151
3 126 129 131
3 117 151 150
3 90 88 122
3 114 112 146
3 104 105 139
3 97 131 133
3 100 134 136
3 106 140 141
3 92 126 127
3 110 144 145
3 105 107 141
3 91 125 151
3 93 127 128
3 90 124 135
3 95 129 126
3 104 138 137
3 98 132 143
3 89 103 137
3 84 94 128
3 164 165 179
3 163 164 178
3 169 170 167
3 159 156 160
3 154 155 165
3 156 153 152
3 155 158 157
3 157 172 171
3 169 166 173
3 166 160 174
3 168 167 172
3 152 175 161
3 162 176 175
3 163 177 176
3 49 169 168
3 62 172 167
3 58 171 172
3 45 17 159
3 65 170 173
3 10 155 154
3 79 178 179
3 81 161 175
3 7 153 156
3 61 173 174
3 39 5 154
3 18 158 155
3 50 168 157
3 66 167 170
