ply
format ascii 1.0
comment Created in Blender version 4.0.1
element vertex 128
property float x
property float y
property float z
property float nx
property float ny
property float nz
element face 252
property list uchar uint vertex_indices
end_header
0 0.28666776 1.0099298 1.4826721e-09 2.490114 0.2014765
0 0.29079163 -3.4322016 3.1342296e-08 2.768867 0.17323999
-0.056730777 0.28108 1.0099298 -0.4861932 2.4424458 0.20145436
-0.056730777 0.28520387 -3.4322016 -0.53998256 2.7159257 0.17321536
-0.11128143 0.2645315 1.0099298 -0.953947 2.3012264 0.20138861
-0.11128143 0.26865536 -3.4322016 -1.0594842 2.5590816 0.17314252
-0.16155559 0.2376582 1.0099298 -1.385007 2.0655625 0.20176376
-0.16155559 0.24178202 -3.4322016 -1.5387726 2.304208 0.17302416
-0.20562126 0.20149279 1.0099298 -1.7643874 1.7626039 0.20113799
-0.20562126 0.20561662 -3.4322016 -1.9595808 1.9608699 0.1728648
-0.24178502 0.15742512 1.0099298 -2.0626588 1.3677455 0.20282912
-0.24178502 0.16154894 -3.4322016 -2.305791 1.5419909 0.17267047
-0.26865712 0.10714866 1.0099298 -2.2369223 0.90763557 0.20805909
-0.26865712 0.111272484 -3.4322016 -2.5640454 1.0633962 0.17244843
-0.2852049 0.05258165 1.0007257 -2.4571471 0.48266748 0.20023109
-0.2852049 0.056719348 -3.4322016 -2.724261 0.54324347 0.17220773
-0.29079238 -0.004151717 1.0007257 -2.5031264 -0.0017149348 0.20031963
-0.29079238 -1.4021258e-05 -3.4322016 -2.780059 0.0013911737 0.17195629
-0.2852049 -0.060885083 1.0007257 -2.4571707 -0.49045646 0.20009235
-0.2852049 -0.056747384 -3.4322016 -2.72903 -0.5414197 0.17170355
-0.26865712 -0.11543823 1.0007257 -2.316539 -0.9612189 0.19987363
-0.26865712 -0.11130053 -3.4322016 -2.5728524 -1.0642669 0.17146024
-0.24178502 -0.16571467 1.0007257 -2.093599 -1.3949931 0.19916901
-0.24178502 -0.16157697 -3.4322016 -2.317299 -1.5469018 0.17123578
-0.20562126 -0.20978235 1.0007257 -1.8427634 -1.8241127 0.1918956
-0.20562126 -0.20564465 -3.4322016 -1.9720353 -1.9705487 0.17103884
-0.16155559 -0.24593389 1.0099298 -1.3901073 -2.068842 0.20126769
-0.16155559 -0.24181007 -3.4322016 -1.5502753 -2.3186483 0.17087768
-0.11128143 -0.2728211 1.0007257 -1.021956 -2.4688027 0.1838975
-0.11128143 -0.26868337 -3.4322016 -1.0682901 -2.5775652 0.17075689
-0.056730777 -0.28935575 1.0099298 -0.49336496 -2.4654841 0.1992916
-0.056730777 -0.2852319 -3.4322016 -0.5447039 -2.7370846 0.1706866
0 -0.2949435 1.0099298 0 -2.5158114 0.19915919
0 -0.29081964 -3.4322016 5.8872865e-07 -2.7909389 0.17066479
0.056730777 -0.28935575 1.0099298 0.49045727 -2.4672956 0.19918159
0.056730777 -0.2852319 -3.4322016 0.5447352 -2.7370517 0.17068969
0.11128143 -0.27280724 1.0099298 0.9618259 -2.3236606 0.19924766
0.11128143 -0.26868337 -3.4322016 1.0682663 -2.5775151 0.17076337
0.16155559 -0.24593389 1.0099298 1.3957883 -2.0905614 0.19935502
0.16155559 -0.24181007 -3.4322016 1.5502473 -2.318613 0.17088294
0.20562126 -0.20976847 1.0099298 1.7755312 -1.777159 0.19949937
0.20562126 -0.20564465 -3.4322016 1.9720014 -1.9705226 0.1710438
0.24178502 -0.16570081 1.0099298 2.0864058 -1.3957396 0.19967538
0.24178502 -0.16157697 -3.4322016 2.317268 -1.5468891 0.17123966
0.26865712 -0.11542435 1.0099298 2.3165188 -0.9612 0.19987598
0.26865712 -0.11130053 -3.4322016 2.572829 -1.0642638 0.17146286
0.2852049 -0.060871214 1.0099298 2.457159 -0.49044642 0.20009355
0.2852049 -0.056747384 -3.4322016 2.7290173 -0.5414241 0.17170487
0.29079238 -0.0041378452 1.0099298 2.5031261 -0.0017077794 0.20031965
0.29079238 -1.4021258e-05 -3.4322016 2.7800596 0.0013855004 0.17195624
0.2852049 0.05259552 1.0099298 2.452895 0.48618278 0.2005457
0.2852049 0.056719348 -3.4322016 2.724264 0.5432495 0.17220725
0.26865712 0.10714866 1.0099298 2.3086405 0.9545213 0.2007628
0.26865712 0.111272484 -3.4322016 2.564046 1.0633959 0.1724484
0.24178502 0.15742512 1.0099298 2.0761118 1.3854474 0.20096284
0.24178502 0.16154894 -3.4322016 2.3057911 1.5419909 0.17267041
0.20562126 0.20149279 1.0099298 1.7643874 1.7626039 0.20113799
0.20562126 0.20561662 -3.4322016 1.9595809 1.9608704 0.17286476
0.16155559 0.2376582 1.0099298 1.3854938 2.0717425 0.2012818
0.16155559 0.24178202 -3.4322016 1.538773 2.304208 0.17302415
0.11128143 0.2645315 1.0099298 0.953947 2.3012264 0.20138861
0.11128143 0.26865536 -3.4322016 1.0594844 2.5590816 0.17314248
0.056730777 0.28108 1.0099298 0.4849939 2.4419887 0.20151518
0.056730777 0.28520387 -3.4322016 0.53998226 2.7159257 0.17321537
-3.0214114e-08 0.36045435 -3.7358983 2.719677e-07 2.860212 0.16217548
-0.070320725 0.35352805 -3.7358983 -0.55802536 2.8052537 0.16217552
-0.13793905 0.33301532 -3.7358983 -1.094606 2.6424909 0.16217555
-0.20025644 0.29970443 -3.7358983 -1.5891212 2.3781788 0.1621756
-0.25487807 0.25487557 -3.7358983 -2.0225663 2.0224745 0.1621757
-0.29970494 0.2002514 -3.7358983 -2.3782868 1.5890474 0.1621757
-0.33301425 0.13793115 -3.7358983 -2.6426108 1.094555 0.16217574
-0.35352606 0.07030975 -3.7358983 -2.8053799 0.5579984 0.16217585
-0.36045203 -1.4168533e-05 -3.7358983 -2.8603408 -4.9354576e-08 0.16217583
-0.35352606 -0.070338085 -3.7358983 -2.8053799 -0.5579984 0.16217591
-0.33301425 -0.13795951 -3.7358983 -2.6426103 -1.0945551 0.16217591
-0.29970494 -0.20027974 -3.7358983 -2.3782866 -1.5890471 0.16217594
-0.25487807 -0.25490388 -3.7358983 -2.0225658 -2.0224743 0.16217598
-0.20025644 -0.29973274 -3.7358983 -1.5891207 -2.3781774 0.16217598
-0.13793905 -0.33304363 -3.7358983 -1.0946054 -2.64249 0.16217591
-0.070320725 -0.35355636 -3.7358983 -0.5580245 -2.8052526 0.1621759
-3.0214114e-08 -0.36048266 -3.7358983 4.1564894e-07 -2.8602114 0.16217585
0.070320666 -0.35355636 -3.7358983 0.55802554 -2.8052535 0.16217576
0.13793899 -0.33304363 -3.7358983 1.0946066 -2.6424913 0.16217571
0.20025638 -0.29973274 -3.7358983 1.5891229 -2.3781793 0.16217563
0.254878 -0.25490388 -3.7358983 2.0225687 -2.0224762 0.16217554
0.29970485 -0.20027974 -3.7358983 2.3782902 -1.5890489 0.16217546
0.3330142 -0.13795951 -3.7358983 2.6426144 -1.094556 0.16217537
0.35352597 -0.070338085 -3.7358983 2.8053844 -0.55800015 0.16217531
0.36045197 -1.4168533e-05 -3.7358983 2.8603454 -2.2894794e-07 0.16217525
0.35352597 0.07030975 -3.7358983 2.8053844 0.558 0.16217525
0.3330142 0.13793115 -3.7358983 2.6426146 1.0945563 0.16217521
0.29970485 0.2002514 -3.7358983 2.3782907 1.5890492 0.16217521
0.254878 0.25487557 -3.7358983 2.02257 2.022477 0.16217524
0.20025638 0.29970443 -3.7358983 1.5891237 2.37818 0.16217525
0.13793899 0.33301532 -3.7358983 1.0946076 2.6424928 0.16217524
0.070320666 0.35352805 -3.7358983 0.55802596 2.8052547 0.16217537
-1.8568787e-07 0.3604543 -4.4542556 -5.4282424e-07 2.5030036 -0.2003206
-0.07032088 0.353528 -4.4542556 -0.488336 2.4549096 -0.2003205
-0.13793921 0.33301526 -4.4542556 -0.9579026 2.3124738 -0.20032053
-0.2002566 0.29970437 -4.4542556 -1.3906591 2.0811727 -0.2003204
-0.25487822 0.2548755 -4.4542556 -1.7699752 1.7698917 -0.20032029
-0.29970506 0.20025137 -4.4542556 -2.081265 1.3905969 -0.20032053
-0.3330144 0.13793112 -4.4542556 -2.3125808 0.95785904 -0.20032036
-0.35352618 0.07030972 -4.4542556 -2.4550178 0.48831367 -0.20032077
-0.36045218 -1.4200069e-05 -4.4542556 -2.5031195 -8.756278e-09 -0.2003203
-0.35352618 -0.070338115 -4.4542556 -2.4550178 -0.48831326 -0.20032077
-0.3330144 -0.13795954 -4.4542556 -2.3125808 -0.9578587 -0.20032029
-0.29970506 -0.20027977 -4.4542556 -2.0812767 -1.3905922 -0.2003198
-0.25487822 -0.25490394 -4.4542556 -1.7699707 -1.7698928 -0.20032035
-0.2002566 -0.2997328 -4.4542556 -1.3906591 -2.081173 -0.2003202
-0.13793921 -0.3330437 -4.4542556 -0.9579022 -2.3124738 -0.20032038
-0.07032088 -0.35355642 -4.4542556 -0.4883345 -2.4549098 -0.20032029
-1.8568787e-07 -0.36048272 -4.4542556 -4.294873e-07 -2.5030034 -0.2003204
0.07032051 -0.35355642 -4.4542556 0.48833492 -2.4549088 -0.2003204
0.13793883 -0.3330437 -4.4542556 0.9579006 -2.3124728 -0.2003205
0.20025621 -0.2997328 -4.4542556 1.3906567 -2.0811706 -0.2003205
0.25487787 -0.25490394 -4.4542556 1.7699672 -1.7698914 -0.20032065
0.29970473 -0.20027977 -4.4542556 2.0812683 -1.390592 -0.20032036
0.33301404 -0.13795954 -4.4542556 2.312577 -0.95785683 -0.20032068
0.35352585 -0.070338115 -4.4542556 2.4550126 -0.48831177 -0.20032124
0.36045182 -1.4200069e-05 -4.4542556 2.5031145 -8.756301e-09 -0.20032081
0.35352585 0.07030972 -4.4542556 2.4550126 0.48831198 -0.20032123
0.33301404 0.13793112 -4.4542556 2.312576 0.95785725 -0.2003208
0.29970473 0.20025137 -4.4542556 2.0812645 1.3905936 -0.20032069
0.25487787 0.2548755 -4.4542556 1.7699717 1.7698903 -0.2003206
0.20025621 0.29970437 -4.4542556 1.390657 2.0811708 -0.20032063
0.13793883 0.33301526 -4.4542556 0.9579009 2.3124728 -0.20032069
0.07032051 0.353528 -4.4542556 0.48833358 2.4549096 -0.20032057
3 0 3 2
3 2 5 4
3 4 7 6
3 6 9 8
3 8 11 10
3 10 13 12
3 12 15 14
3 14 17 16
3 16 19 18
3 18 21 20
3 20 23 22
3 22 25 24
3 24 27 26
3 27 28 26
3 28 31 30
3 30 33 32
3 33 34 32
3 35 36 34
3 37 38 36
3 39 40 38
3 41 42 40
3 43 44 42
3 45 46 44
3 47 48 46
3 49 50 48
3 51 52 50
3 53 54 52
3 55 56 54
3 57 58 56
3 59 60 58
3 53 91 55
3 61 62 60
3 63 0 62
3 30 46 62
3 75 108 76
3 11 68 69
3 29 77 78
3 45 87 47
3 1 65 3
3 1 95 64
3 21 73 74
3 37 83 39
3 55 92 57
3 13 69 70
3 31 78 79
3 47 88 49
3 5 65 66
3 23 74 75
3 39 84 41
3 57 93 59
3 15 70 71
3 31 80 33
3 49 89 51
3 7 66 67
3 25 75 76
3 41 85 43
3 61 93 94
3 17 71 72
3 33 81 35
3 51 90 53
3 9 67 68
3 27 76 77
3 43 86 45
3 63 94 95
3 19 72 73
3 35 82 37
3 114 106 98
3 90 121 122
3 76 109 77
3 91 122 123
3 77 110 78
3 65 96 97
3 92 123 124
3 78 111 79
3 66 97 98
3 93 124 125
3 79 112 80
3 67 98 99
3 94 125 126
3 80 113 81
3 68 99 100
3 95 126 127
3 81 114 82
3 69 100 101
3 64 127 96
3 82 115 83
3 70 101 102
3 83 116 84
3 71 102 103
3 84 117 85
3 72 103 104
3 85 118 86
3 72 105 73
3 86 119 87
3 73 106 74
3 87 120 88
3 74 107 75
3 89 120 121
3 0 1 3
3 2 3 5
3 4 5 7
3 6 7 9
3 8 9 11
3 10 11 13
3 12 13 15
3 14 15 17
3 16 17 19
3 18 19 21
3 20 21 23
3 22 23 25
3 24 25 27
3 27 29 28
3 28 29 31
3 30 31 33
3 33 35 34
3 35 37 36
3 37 39 38
3 39 41 40
3 41 43 42
3 43 45 44
3 45 47 46
3 47 49 48
3 49 51 50
3 51 53 52
3 53 55 54
3 55 57 56
3 57 59 58
3 59 61 60
3 53 90 91
3 61 63 62
3 63 1 0
3 62 0 2
3 2 4 6
3 6 8 10
3 10 12 14
3 14 16 18
3 18 20 22
3 22 24 26
3 26 28 30
3 30 32 34
3 34 36 38
3 38 40 42
3 42 44 46
3 46 48 50
3 50 52 54
3 54 56 58
3 58 60 62
3 62 2 6
3 6 10 14
3 14 18 22
3 22 26 30
3 30 34 38
3 38 42 46
3 46 50 54
3 54 58 62
3 62 6 14
3 14 22 30
3 30 38 46
3 46 54 62
3 62 14 30
3 75 107 108
3 11 9 68
3 29 27 77
3 45 86 87
3 1 64 65
3 1 63 95
3 21 19 73
3 37 82 83
3 55 91 92
3 13 11 69
3 31 29 78
3 47 87 88
3 5 3 65
3 23 21 74
3 39 83 84
3 57 92 93
3 15 13 70
3 31 79 80
3 49 88 89
3 7 5 66
3 25 23 75
3 41 84 85
3 61 59 93
3 17 15 71
3 33 80 81
3 51 89 90
3 9 7 67
3 27 25 76
3 43 85 86
3 63 61 94
3 19 17 72
3 35 81 82
3 98 97 96
3 96 127 126
3 126 125 124
3 124 123 122
3 122 121 120
3 120 119 118
3 118 117 116
3 116 115 114
3 114 113 112
3 112 111 110
3 110 109 108
3 108 107 106
3 106 105 104
3 104 103 102
3 102 101 100
3 100 99 98
3 98 96 126
3 126 124 122
3 122 120 118
3 118 116 114
3 114 112 110
3 110 108 106
3 106 104 102
3 102 100 98
3 98 126 122
3 122 118 114
3 114 110 106
3 106 102 98
3 98 122 114
3 90 89 121
3 76 108 109
3 91 90 122
3 77 109 110
3 65 64 96
3 92 91 123
3 78 110 111
3 66 65 97
3 93 92 124
3 79 111 112
3 67 66 98
3 94 93 125
3 80 112 113
3 68 67 99
3 95 94 126
3 81 113 114
3 69 68 100
3 64 95 127
3 82 114 115
3 70 69 101
3 83 115 116
3 71 70 102
3 84 116 117
3 72 71 103
3 85 117 118
3 72 104 105
3 86 118 119
3 73 105 106
3 87 119 120
3 74 106 107
3 89 88 120
