ply
format ascii 1.0
comment Created in Blender version 4.0.1
element vertex 16
property float x
property float y
property float z
property float nx
property float ny
property float nz
element face 28
property list uchar uint vertex_indices
end_header
1.8213799 -0.49102923 -1.2256231 0.66861165 -0.36114383 -0.32768884
1.0828427 0.8282595 -0.7367391 0.4329863 0.72003716 -0.18932566
1.8213799 -0.49102923 1.2256231 0.6610307 -0.35602495 0.34726435
1.0828427 0.8282595 0.72056973 0.42909572 0.718507 0.20267363
-1.8213787 -0.49102923 -1.2256231 -0.6686118 -0.3611438 -0.32768852
-1.0828412 0.8282595 -0.7367391 -0.4329862 0.72003734 -0.18932538
-1.8213787 -0.49102923 1.2256231 -0.66103077 -0.35602498 0.34726405
-1.0828412 0.8282595 0.72056973 -0.4290957 0.71850705 0.20267338
0.7266887 -0.49102923 2.0345333 0.23242663 -0.3755341 0.70096624
0.43202963 0.8282595 1.2014809 0.14046134 0.73485583 0.43034348
-0.72668946 -0.49102923 2.0345333 -0.232427 -0.37553403 0.70096624
-0.43202916 0.8282595 1.2014809 -0.14046149 0.73485583 0.43034342
0.75308317 -0.49102923 -2.114287 0.252042 -0.3682352 -0.6974833
0.44772163 0.8282595 -1.2650652 0.15432906 0.73420626 -0.4265228
-0.7530841 -0.49102923 -2.114287 -0.25204244 -0.3682351 -0.6974832
-0.4477212 0.8282595 -1.2650652 -0.15432917 0.7342063 -0.4265227
3 0 3 2
3 7 10 11
3 7 4 6
3 5 13 15
3 6 0 2
3 3 5 7
3 8 11 10
3 6 8 10
3 7 9 3
3 3 8 2
3 15 12 14
3 4 15 14
3 0 13 1
3 4 12 0
3 0 1 3
3 7 6 10
3 7 5 4
3 5 1 13
3 6 4 0
3 3 1 5
3 8 9 11
3 6 2 8
3 7 11 9
3 3 9 8
3 15 13 12
3 4 5 15
3 0 12 13
3 4 14 12
